<?xml version="1.0" encoding="iso-8859-1"?>
<!-- Generator: Adobe Illustrator 18.1.1, SVG Export Plug-In . SVG Version: 6.00 Build 0)  -->
<svg version="1.1" id="Capa_1" xmlns="http://www.w3.org/2000/svg" xmlns:xlink="http://www.w3.org/1999/xlink" x="0px" y="0px"
	 viewBox="0 0 18.211 18.211" style="enable-background:new 0 0 18.211 18.211;" xml:space="preserve">
<g>
	<path style="fill:#010002;" d="M14.081,11.806c0,1.986-1.383,3.682-3.947,4.106v2.299H7.923V16.09
		c-1.496-0.067-2.945-0.491-3.793-0.96l0.668-2.611c0.937,0.513,2.254,0.983,3.705,0.983c1.295,0,2.164-0.513,2.164-1.383
		c0-0.848-0.715-1.384-2.389-1.943C5.892,9.372,4.264,8.258,4.264,6.093c0-1.986,1.381-3.526,3.768-3.973V0h2.189v1.963
		c1.473,0.046,2.477,0.379,3.258,0.738l-0.67,2.521c-0.559-0.269-1.608-0.783-3.214-0.783c-1.449,0-1.919,0.648-1.919,1.273
		c0,0.713,0.782,1.206,2.701,1.896C13.032,8.546,14.08,9.773,14.081,11.806z"/>
</g>
<g>
</g>
<g>
</g>
<g>
</g>
<g>
</g>
<g>
</g>
<g>
</g>
<g>
</g>
<g>
</g>
<g>
</g>
<g>
</g>
<g>
</g>
<g>
</g>
<g>
</g>
<g>
</g>
<g>
</g>
</svg>
