<?xml version='1.0' encoding='iso-8859-1'?>
<!DOCTYPE svg PUBLIC '-//W3C//DTD SVG 1.1//EN' 'http://www.w3.org/Graphics/SVG/1.1/DTD/svg11.dtd'>
<svg version="1.1" xmlns="http://www.w3.org/2000/svg" viewBox="0 0 512 512" xmlns:xlink="http://www.w3.org/1999/xlink" enable-background="new 0 0 512 512">
  <g>
    <path d="M464,128h-12.228C424.984,47.527,355.081,0,256,0S87.016,47.527,60.228,128H48c-17.672,0-32,14.328-32,32v96   c0,17.672,14.328,32,32,32h9.218C83.113,404.031,160.893,512,256,512s172.887-107.969,198.782-224H464c17.672,0,32-14.328,32-32   v-96C496,142.328,481.672,128,464,128z M368,272H144V144h224V272z"/>
    <polygon points="288,160 256,160 192,256 224,256  "/>
    <polygon points="288,256 352,160 320,160 256,256  "/>
  </g>
</svg>
