<?xml version="1.0" encoding="UTF-8" standalone="no"?>
<!-- Created with Inkscape (http://www.inkscape.org/) -->

<svg
   xmlns:dc="http://purl.org/dc/elements/1.1/"
   xmlns:cc="http://creativecommons.org/ns#"
   xmlns:rdf="http://www.w3.org/1999/02/22-rdf-syntax-ns#"
   xmlns:svg="http://www.w3.org/2000/svg"
   xmlns="http://www.w3.org/2000/svg"
   xmlns:sodipodi="http://sodipodi.sourceforge.net/DTD/sodipodi-0.dtd"
   xmlns:inkscape="http://www.inkscape.org/namespaces/inkscape"
   width="1320"
   height="600"
   viewBox="0 0 1320 600.00004"
   id="svg3336"
   version="1.1"
   inkscape:version="0.91 r13725"
   sodipodi:docname="Logo.svg"
   inkscape:export-filename="/home/lucas/Dropbox/PROFISSIONAL/EMPRESAS/SIAC - TECNOLOGIA/MKT E PUB/MATERIAL VISUAL/FORMATOS ABERTOS/Documentos/header.svg.png"
   inkscape:export-xdpi="300"
   inkscape:export-ydpi="300">
  <defs
     id="defs3338" />
  <sodipodi:namedview
     id="base"
     pagecolor="#ffffff"
     bordercolor="#666666"
     borderopacity="0.43137255"
     inkscape:pageopacity="0.0"
     inkscape:pageshadow="2"
     inkscape:zoom="0.24748737"
     inkscape:cx="818.5428"
     inkscape:cy="-202.36964"
     inkscape:document-units="px"
     inkscape:current-layer="layer1"
     showgrid="false"
     units="px"
     showborder="true"
     inkscape:showpageshadow="false"
     inkscape:window-width="1600"
     inkscape:window-height="837"
     inkscape:window-x="0"
     inkscape:window-y="30"
     inkscape:window-maximized="1" />
  <metadata
     id="metadata3341">
    <rdf:RDF>
      <cc:Work
         rdf:about="">
        <dc:format>image/svg+xml</dc:format>
        <dc:type
           rdf:resource="http://purl.org/dc/dcmitype/StillImage" />
        <dc:title></dc:title>
      </cc:Work>
    </rdf:RDF>
  </metadata>
  <g
     inkscape:label="Layer 1"
     inkscape:groupmode="layer"
     id="layer1"
     transform="translate(0,-452.36206)">
    <g
       id="Layer1003"
       transform="matrix(20.181283,0,0,20.402677,-2726.9439,-1612.1432)"
       style="fill:#121d83;fill-opacity:1">
      <path
         d="m 174.80542,116.83884 c 0,0.2273 -0.18242,0.411 -0.40798,0.411 l -3.48943,0 c -0.22555,0 -0.40754,-0.18328 -0.40754,-0.411 l 0,0 c 0,-0.22633 0.1824,-0.41 0.40754,-0.41 l 3.48943,0 c 0.22556,4e-4 0.40798,0.18367 0.40798,0.41 l 0,0 z"
         style="fill:#121d83;fill-opacity:1;fill-rule:evenodd"
         id="path4329"
         inkscape:connector-curvature="0" />
      <path
         d="m 174.80542,119.0981 c 0,0.22669 -0.18242,0.41003 -0.40798,0.41003 l -3.48943,0 c -0.22555,0 -0.40754,-0.18274 -0.40754,-0.41003 l 0,0 c 0,-0.22671 0.1824,-0.41058 0.40754,-0.41058 l 3.48943,2.2e-4 c 0.22556,0 0.40798,0.18306 0.40798,0.41036 l 0,0 z"
         style="fill:#121d83;fill-opacity:1;fill-rule:evenodd"
         id="path4331"
         inkscape:connector-curvature="0" />
      <path
         d="m 148.46557,118.03024 c 0,0.40031 -0.16071,0.74672 -0.48212,1.03856 -0.32142,0.29249 -0.71154,0.43874 -1.17065,0.43874 l -5.79243,1.6e-4 0,-1.47783 5.62914,0 c 0.10908,0 0.16348,-0.0514 0.16348,-0.15399 l 0,-0.80819 c 0,-0.0462 -0.0161,-0.0832 -0.0478,-0.11188 -0.0317,-0.0282 -0.0704,-0.0422 -0.11641,-0.0422 l -3.97656,0 c -0.4591,0 -0.84927,-0.14372 -1.1707,-0.43115 -0.32184,-0.28783 -0.48206,-0.63633 -0.48206,-1.0469 l 0,-1.10835 c 0,-0.41064 0.1607,-0.75952 0.48206,-1.04696 0.32143,-0.28781 0.7116,-0.43115 1.1707,-0.43115 l 5.79262,4.3e-4 0,1.47782 -5.62909,0 c -0.046,0 -0.0843,0.0138 -0.1158,0.0422 -0.0318,0.0287 -0.0478,0.063 -0.0478,0.10419 l 0,0.81593 c 0,0.0412 0.0155,0.0754 0.0478,0.10363 0.0317,0.0284 0.0701,0.0426 0.1158,0.0426 l 3.97656,0 c 0.4591,0 0.84922,0.14314 1.17064,0.43111 0.32141,0.28744 0.48211,0.63637 0.48211,1.04694 l -2.2e-4,1.11632 6.7e-4,0 z"
         style="fill:#121d83;fill-opacity:1;fill-rule:evenodd"
         id="path4333"
         inkscape:connector-curvature="0" />
      <path
         d="m 150.8238,119.50813 -1.65253,0 0,-6.65813 1.65253,1.6e-4 0,6.65797 z"
         style="fill:#121d83;fill-opacity:1;fill-rule:evenodd"
         id="path4335"
         inkscape:connector-curvature="0" />
      <path
         d="m 159.96448,119.50813 -6.00013,0 0.78094,-1.47789 2.63716,0 -1.58382,-3.02552 c -0.0344,-0.0558 -0.0833,-0.0848 -0.14642,-0.0848 -0.0802,0 -0.13205,0.0287 -0.15482,0.0848 l -2.3498,4.50282 -1.81589,1.6e-4 3.17608,-6.09627 c 0.22946,-0.4464 0.61116,-0.66968 1.14467,-0.66968 0.52786,0 0.90649,0.22328 1.1362,0.66968 l 3.17583,6.0967 z"
         style="fill:#121d83;fill-opacity:1;fill-rule:evenodd"
         id="path4337"
         inkscape:connector-curvature="0" />
      <path
         d="m 166.37674,119.50813 -4.55305,0 c -0.7575,0 -1.30838,-0.3464 -1.65251,-1.0392 -0.27545,-0.5543 -0.41314,-1.31821 -0.41314,-2.29376 0,-0.63578 0.0488,-1.17008 0.14634,-1.60102 0.12062,-0.53877 0.32142,-0.94933 0.60251,-1.23097 0.32701,-0.32893 0.76598,-0.49258 1.3168,-0.49258 l 4.55305,0 0,1.47781 -4.38104,0 c -0.19521,0 -0.33572,0.1606 -0.42184,0.48136 -0.086,0.32082 -0.12903,0.77639 -0.12903,1.36599 0,0.5952 0.043,1.05349 0.12903,1.37425 0.0862,0.32082 0.22663,0.48142 0.42184,0.48142 l 4.38104,0 0,1.4767 z"
         style="fill:#121d83;fill-opacity:1;fill-rule:evenodd"
         id="path4339"
         inkscape:connector-curvature="0" />
      <path
         d="m 144.16027,121.60851 -3.47495,0 0,-0.68968 3.47429,0 0,0.68968 6.7e-4,0 z m -1.35028,2.41733 -0.77114,0 0,-2.57094 0.77114,2.1e-4 0,2.57073 z"
         style="fill:#121d83;fill-opacity:1;fill-rule:evenodd"
         id="path4341"
         inkscape:connector-curvature="0" />
      <path
         d="m 147.79064,124.02584 -2.70308,0 c -0.21468,0 -0.39642,-0.0672 -0.54625,-0.20113 -0.1499,-0.13442 -0.2249,-0.2971 -0.2249,-0.48856 l 0,-1.7278 c 0,-0.19145 0.0753,-0.35414 0.2249,-0.48856 0.14983,-0.13405 0.33224,-0.20113 0.54625,-0.20113 l 2.70308,1.7e-4 0,0.68968 -2.62694,0 c -0.0212,0 -0.0397,0.007 -0.0541,0.0197 -0.0149,0.0135 -0.0223,0.0297 -0.0223,0.0487 l 0,0.449 2.70326,0 0,0.68968 -2.70307,0 0,0.44895 c 0,0.0216 0.007,0.039 0.0224,0.0524 0.0144,0.0134 0.0327,0.0199 0.0541,0.0199 l 2.62668,0 0,0.68909 z"
         style="fill:#121d83;fill-opacity:1;fill-rule:evenodd"
         id="path4343"
         inkscape:connector-curvature="0" />
      <path
         d="m 151.14454,124.02584 -2.1249,0 c -0.35345,0 -0.61045,-0.16156 -0.77115,-0.48485 -0.12861,-0.25874 -0.1928,-0.61519 -0.1928,-1.07037 0,-0.29657 0.023,-0.54559 0.0682,-0.74708 0.0562,-0.25096 0.14981,-0.44278 0.28102,-0.57466 0.15266,-0.15282 0.35742,-0.22946 0.61459,-0.22946 l 2.12491,-1.6e-4 0,0.68963 -2.04444,0 c -0.0913,0 -0.15657,0.0749 -0.19689,0.22482 -0.0403,0.1499 -0.0603,0.36226 -0.0603,0.63728 0,0.27814 0.0202,0.49168 0.0603,0.64137 0.0401,0.14936 0.10555,0.22477 0.19689,0.22477 l 2.04444,2.1e-4 0,0.6885 z"
         style="fill:#121d83;fill-opacity:1;fill-rule:evenodd"
         id="path4345"
         inkscape:connector-curvature="0" />
      <path
         d="m 154.40193,124.02584 -0.77114,0 0,-2.20245 c 0,-0.0881 -0.0592,-0.15494 -0.17676,-0.19919 -0.11821,-0.0441 -0.31726,-0.0661 -0.59859,-0.0661 -0.2841,0 -0.48316,0.0206 -0.59855,0.0626 -0.11539,0.0415 -0.17261,0.10939 -0.17261,0.20262 l 0,2.20245 -0.77097,0 0,-2.2748 c 0,-0.33704 0.14852,-0.57772 0.44588,-0.72144 0.24378,-0.11695 0.60937,-0.17553 1.09647,-0.17553 0.47908,0 0.84647,0.0631 1.10063,0.18988 0.29733,0.14835 0.44589,0.38381 0.44589,0.70709 l -2.5e-4,2.2748 z"
         style="fill:#121d83;fill-opacity:1;fill-rule:evenodd"
         id="path4347"
         inkscape:connector-curvature="0" />
      <path
         d="m 158.3744,122.47062 c 0,0.45518 -0.0642,0.81183 -0.1928,1.07037 -0.16071,0.32329 -0.41769,0.48485 -0.77121,0.48485 l -1.54627,0 c -0.35351,0 -0.61049,-0.16156 -0.7712,-0.48485 -0.12862,-0.25874 -0.19281,-0.61519 -0.19281,-1.07037 0,-0.29657 0.023,-0.54559 0.0682,-0.74708 0.0561,-0.25096 0.14983,-0.44278 0.28103,-0.57466 0.15272,-0.15282 0.35743,-0.22946 0.61465,-0.22946 l 1.54627,-1.6e-4 c 0.36956,0 0.63237,0.16114 0.78725,0.48447 0.11774,0.24686 0.17676,0.6024 0.17676,1.06689 z m -0.78726,0 c 0,-0.28278 -0.0189,-0.49669 -0.0562,-0.64293 -0.0372,-0.14565 -0.10321,-0.21918 -0.19688,-0.21918 l -1.3897,0 c -0.10449,0 -0.17328,0.0707 -0.2067,0.21198 -0.0332,0.14121 -0.0498,0.35763 -0.0498,0.65013 0,0.27808 0.0203,0.49161 0.0603,0.64135 0.0402,0.14937 0.10567,0.22477 0.19695,0.22477 l 1.38929,0 c 0.0913,0 0.15547,-0.0754 0.19449,-0.22633 0.0388,-0.15123 0.0583,-0.36424 0.0583,-0.63979 z"
         style="fill:#121d83;fill-opacity:1;fill-rule:evenodd"
         id="path4349"
         inkscape:connector-curvature="0" />
      <path
         d="m 161.96536,124.02584 -2.31749,0 c -0.21473,0 -0.39647,-0.0672 -0.54631,-0.20113 -0.14989,-0.13442 -0.2249,-0.2971 -0.2249,-0.48856 l 0,-2.41749 0.77121,1.7e-4 0,2.34499 c 0,0.0216 0.007,0.039 0.0223,0.0524 0.0144,0.0133 0.0327,0.0199 0.0541,0.0199 l 2.24115,0 0,0.68968 z"
         style="fill:#121d83;fill-opacity:1;fill-rule:evenodd"
         id="path4351"
         inkscape:connector-curvature="0" />
      <path
         d="m 165.35136,122.47062 c 0,0.45518 -0.0642,0.81183 -0.19281,1.07037 -0.16071,0.32329 -0.4177,0.48485 -0.77121,0.48485 l -1.54627,0 c -0.3535,0 -0.6105,-0.16156 -0.7712,-0.48485 -0.12861,-0.25874 -0.19281,-0.61519 -0.19281,-1.07037 0,-0.29657 0.023,-0.54559 0.0682,-0.74708 0.0561,-0.25096 0.14984,-0.44278 0.28103,-0.57466 0.15272,-0.15282 0.35742,-0.22946 0.61466,-0.22946 l 1.54625,-1.6e-4 c 0.36956,0 0.63239,0.16114 0.78727,0.48447 0.11773,0.24686 0.17675,0.6024 0.17675,1.06689 z m -0.78726,0 c 0,-0.28278 -0.0189,-0.49669 -0.0562,-0.64293 -0.0372,-0.14565 -0.10321,-0.21918 -0.19689,-0.21918 l -1.38971,0 c -0.10449,0 -0.17327,0.0707 -0.20668,0.21198 -0.0332,0.14121 -0.0499,0.35763 -0.0499,0.65013 0,0.27808 0.0203,0.49161 0.0603,0.64135 0.0402,0.14937 0.10555,0.22477 0.19695,0.22477 l 1.38969,0 c 0.0913,0 0.15549,-0.0754 0.19455,-0.22633 0.0384,-0.15123 0.0579,-0.36424 0.0579,-0.63979 z"
         style="fill:#121d83;fill-opacity:1;fill-rule:evenodd"
         id="path4353"
         inkscape:connector-curvature="0" />
      <path
         d="m 169.3157,123.33674 c 0,0.18618 -0.0753,0.34856 -0.22489,0.48449 -0.14983,0.13694 -0.33224,0.20483 -0.54625,0.20483 l -1.93187,-2.2e-4 c -0.21473,0 -0.3965,-0.0672 -0.54631,-0.20113 -0.1499,-0.13442 -0.22491,-0.2971 -0.22491,-0.48856 l 0,-1.7278 c 0,-0.19145 0.0753,-0.35414 0.22491,-0.48856 0.14981,-0.13405 0.33224,-0.20113 0.54631,-0.20113 l 2.70301,1.7e-4 0,0.68968 -2.62669,0 c -0.0219,0 -0.0397,0.007 -0.0541,0.0197 -0.0149,0.0135 -0.0223,0.0297 -0.0223,0.0487 l 0,1.58763 c 0,0.0216 0.007,0.039 0.0223,0.0524 0.0143,0.0134 0.0327,0.0199 0.0541,0.0199 l 1.77922,0 c 0.0504,0 0.0763,-0.024 0.0763,-0.0723 l 0,-0.44894 -0.77511,0 0,-0.68969 1.54626,0 0,1.21097 z"
         style="fill:#121d83;fill-opacity:1;fill-rule:evenodd"
         id="path4355"
         inkscape:connector-curvature="0" />
      <path
         d="m 170.50072,124.02584 -0.77123,0 0,-3.10718 0.77123,1.7e-4 0,3.10701 z"
         style="fill:#121d83;fill-opacity:1;fill-rule:evenodd"
         id="path4357"
         inkscape:connector-curvature="0" />
      <path
         d="m 174.84267,124.02584 -2.8002,0 0.36433,-0.68969 1.23099,0 -0.73913,-1.41171 c -0.0161,-0.0268 -0.0384,-0.0396 -0.0682,-0.0396 -0.0372,0 -0.0613,0.0129 -0.0722,0.0396 l -1.09653,2.1014 -0.84755,0 1.48214,-2.84495 c 0.10734,-0.20831 0.28518,-0.31248 0.53412,-0.31248 0.24617,0 0.42293,0.10419 0.53027,0.31248 l 1.48207,2.84495 z"
         style="fill:#121d83;fill-opacity:1;fill-rule:evenodd"
         id="path4359"
         inkscape:connector-curvature="0" />
      <path
         d="m 185.00484,111.14853 c 0,0.31555 -0.28627,0.57117 -0.63869,0.57117 l -5.46429,0 c -0.35284,0 -0.63868,-0.25562 -0.63868,-0.57117 l 0,0 c 0,-0.31556 0.28625,-0.57117 0.63868,-0.57117 l 5.46429,0 c 0.35219,-3.8e-4 0.63869,0.25503 0.63869,0.57117 l 0,0 z"
         style="fill:#121d83;fill-opacity:1;fill-rule:evenodd"
         id="path4361"
         inkscape:connector-curvature="0" />
      <path
         d="m 185.00484,114.09919 c 0,0.31554 -0.28627,0.57116 -0.63869,0.57116 l -5.46429,-2.1e-4 c -0.35284,0 -0.63868,-0.25562 -0.63868,-0.57117 l 0,0 c 0,-0.31554 0.28625,-0.57116 0.63868,-0.57116 l 5.46429,2.1e-4 c 0.35219,-4.7e-4 0.63869,0.25502 0.63869,0.57117 l 0,0 z"
         style="fill:#121d83;fill-opacity:1;fill-rule:evenodd"
         id="path4363"
         inkscape:connector-curvature="0" />
      <path
         d="m 185.00484,117.24204 c 0,0.31555 -0.28627,0.57118 -0.63869,0.57118 l -5.46429,0 c -0.35284,0 -0.63868,-0.25563 -0.63868,-0.57118 l 0,0 c 0,-0.31554 0.28625,-0.57116 0.63868,-0.57116 l 5.46429,2e-4 c 0.35219,-4.5e-4 0.63869,0.25504 0.63869,0.57096 l 0,0 z"
         style="fill:#121d83;fill-opacity:1;fill-rule:evenodd"
         id="path4365"
         inkscape:connector-curvature="0" />
      <path
         d="m 185.00484,120.1512 c 0,0.31556 -0.28627,0.57118 -0.63869,0.57118 l -5.46429,-1.7e-4 c -0.35284,0 -0.63868,-0.25562 -0.63868,-0.57115 l 0,0 c 0,-0.31556 0.28625,-0.57118 0.63868,-0.57118 l 5.46429,1.6e-4 c 0.35219,-4.5e-4 0.63869,0.25503 0.63869,0.57116 l 0,0 z"
         style="fill:#121d83;fill-opacity:1;fill-rule:evenodd"
         id="path4367"
         inkscape:connector-curvature="0" />
      <path
         d="m 185.00484,123.04372 c 0,0.31554 -0.28627,0.57117 -0.63869,0.57117 l -5.46429,0 c -0.35284,0 -0.63868,-0.25563 -0.63868,-0.57117 l 0,0 c 0,-0.31554 0.28625,-0.57117 0.63868,-0.57117 l 5.46429,0 c 0.35219,0 0.63869,0.25563 0.63869,0.57117 l 0,0 z"
         style="fill:#121d83;fill-opacity:1;fill-rule:evenodd"
         id="path4369"
         inkscape:connector-curvature="0" />
      <path
         d="m 192.87897,114.71593 c 0,0.22671 -0.18242,0.41057 -0.40796,0.41057 l -3.4892,0 c -0.22555,0 -0.40749,-0.18327 -0.40749,-0.41057 l 0,0 c 0,-0.22632 0.18235,-0.41057 0.40749,-0.41057 l 3.4892,0 c 0.22554,0 0.40796,0.18365 0.40796,0.41057 l 0,0 z"
         style="fill:#121d83;fill-opacity:1;fill-rule:evenodd"
         id="path4371"
         inkscape:connector-curvature="0" />
      <path
         d="m 192.87897,116.83572 c 0,0.22736 -0.18242,0.411 -0.40796,0.411 l -3.4892,0 c -0.22555,0 -0.40749,-0.18327 -0.40749,-0.411 l 0,0 c 0,-0.22634 0.18235,-0.40999 0.40749,-0.40999 l 3.4892,0 c 0.22554,0 0.40796,0.18312 0.40796,0.40999 l 0,0 z"
         style="fill:#121d83;fill-opacity:1;fill-rule:evenodd"
         id="path4373"
         inkscape:connector-curvature="0" />
      <path
         d="m 192.87897,119.0946 c 0,0.22676 -0.18242,0.41004 -0.40796,0.41004 l -3.4892,0 c -0.22555,0 -0.40749,-0.18274 -0.40749,-0.41004 l 0,0 c 0,-0.2267 0.18235,-0.41058 0.40749,-0.41058 l 3.4892,0 c 0.22554,0 0.40796,0.18366 0.40796,0.41058 l 0,0 z"
         style="fill:#121d83;fill-opacity:1;fill-rule:evenodd"
         id="path4375"
         inkscape:connector-curvature="0" />
      <path
         d="m 192.87897,121.18455 c 0,0.22633 -0.18242,0.41058 -0.40796,0.41058 l -3.4892,0 c -0.22555,0 -0.40749,-0.18366 -0.40749,-0.41058 l 0,0 c 0,-0.2267 0.18235,-0.41057 0.40749,-0.41057 l 3.4892,2.1e-4 c 0.22554,0 0.40796,0.18366 0.40796,0.41036 l 0,0 z"
         style="fill:#121d83;fill-opacity:1;fill-rule:evenodd"
         id="path4377"
         inkscape:connector-curvature="0" />
      <path
         d="m 192.87897,123.26345 c 0,0.22631 -0.18242,0.41056 -0.40796,0.41056 l -3.4892,-1.6e-4 c -0.22555,0 -0.40749,-0.18366 -0.40749,-0.41057 l 0,0 c 0,-0.22676 0.18235,-0.41058 0.40749,-0.41058 l 3.4892,1.6e-4 c 0.22554,0 0.40796,0.18366 0.40796,0.41059 l 0,0 z"
         style="fill:#121d83;fill-opacity:1;fill-rule:evenodd"
         id="path4379"
         inkscape:connector-curvature="0" />
      <path
         d="m 174.80542,114.71942 c 0,0.22671 -0.18242,0.41058 -0.40798,0.41058 l -3.48943,0 c -0.22555,0 -0.40748,-0.18328 -0.40748,-0.41058 l 0,0 c 0,-0.22633 0.18234,-0.41057 0.40748,-0.41057 l 3.48943,1.6e-4 c 0.22556,0 0.40798,0.18371 0.40798,0.41041 l 0,0 z"
         style="fill:#121d83;fill-opacity:1;fill-rule:evenodd"
         id="path4381"
         inkscape:connector-curvature="0" />
      <path
         d="m 176.72124,124.07975 0,-14.04739 c 0,-0.75021 0.68052,-1.35841 1.51892,-1.35841 l 6.7089,2.3e-4 c 0.83888,0 1.51898,0.60857 1.51898,1.3584 l 0,14.04738 1.229,-2.1e-4 0,-14.68564 c 0,-0.93288 -0.84646,-1.69024 -1.89005,-1.69024 l -8.34886,0 c -1.04377,0 -1.88998,0.75736 -1.88998,1.69024 l 0,14.68564 1.15309,0 z"
         style="fill:#121d83;fill-opacity:1;fill-rule:evenodd"
         id="path4383"
         inkscape:connector-curvature="0" />
      <path
         d="m 193.12183,111.64638 -5.94742,0 c 0.007,0.0796 0.014,0.16016 0.014,0.24128 l 0,0.7065 5.09513,-1.6e-4 c 0.81936,0 1.48316,0.59326 1.48316,1.32637 l 0,10.15922 1.19997,1.6e-4 0,-10.78274 c 5.2e-4,-0.91134 -0.82559,-1.65063 -1.84472,-1.65063 z"
         style="fill:#121d83;fill-opacity:1;fill-rule:evenodd"
         id="path4385"
         inkscape:connector-curvature="0" />
      <path
         d="m 170.10994,111.64638 c -1.01913,0 -1.84604,0.73892 -1.84604,1.65085 l 0,6.39417 1.12603,0 0,-5.77082 c 0,-0.73332 0.66448,-1.32642 1.48316,-1.32642 l 5.06221,-1.6e-4 0,-0.58553 c 0,-0.12258 0.0115,-0.2432 0.0275,-0.3623 l -5.85289,2.1e-4 z"
         style="fill:#121d83;fill-opacity:1;fill-rule:evenodd"
         id="path4387"
         inkscape:connector-curvature="0" />
    </g>
  </g>
</svg>
